<?xml version="1.0" encoding="UTF-8"?>
<svg version="1.1" xmlns="http://www.w3.org/2000/svg" width="1254" height="1254">
<path d="M0 0 C1.05396973 0.49000488 2.10793945 0.98000977 3.19384766 1.48486328 C42.73959574 19.89378477 79.27600268 43.08739812 112 72 C112.92683594 72.8146875 113.85367188 73.629375 114.80859375 74.46875 C120.06045655 79.13707249 125.07848206 83.98677676 130 89 C132.79918618 91.81359023 135.61702318 94.60654405 138.453125 97.3828125 C144.96395292 103.78269434 151.25570256 110.17208614 156.9140625 117.35546875 C159.10467056 120.13270032 161.38929807 122.81132687 163.6875 125.5 C222.50837794 196.10332089 255.49101851 287.14909177 259.10986328 440.8203125 C254.23448195 489.82550228 242.09508317 537.70833976 221.22119141 582.38427734 C220.09032198 584.80653545 218.98442471 587.23835954 217.88671875 589.67578125 C201.44440266 625.86597438 178.2649487 659.27268198 152 689 C151.1853125 689.92683594 150.370625 690.85367188 149.53125 691.80859375 C144.86292751 697.06045655 140.01322324 702.07848206 135 707 C132.18640977 709.79918618 129.39345595 712.61702318 126.6171875 715.453125 C120.21730566 721.96395292 113.82791386 728.25570256 106.64453125 733.9140625 C103.86729968 736.10467056 101.18867313 738.38929807 98.5 740.6875 C27.89667911 799.50837794 -63.14909177 832.49101851 -216.8203125 836.10986328 C-265.82550228 831.23448195 -313.70833976 819.09508317 -358.38427734 798.22119141 C-360.80653545 797.09032198 -363.23835954 795.98442471 -365.67578125 794.88671875 C-401.86597438 778.44440266 -435.27268198 755.2649487 -465 729 C-465.92683594 728.1853125 -466.85367188 727.370625 -467.80859375 726.53125 C-473.06045655 721.86292751 -478.07848206 717.01322324 -483 712 C-485.79918618 709.18640977 -488.61702318 706.39345595 -491.453125 703.6171875 C-497.96395292 697.21730566 -504.25570256 690.82791386 -509.9140625 683.64453125 C-512.10467056 680.86729968 -514.38929807 678.18867313 -516.6875 675.5 C-575.50837794 604.89667911 -608.49101851 513.85090823 -612.10986328 360.1796875 C-607.23448195 311.17449772 -595.09508317 263.29166024 -574.22119141 218.61572266 C-573.09032198 216.19346455 -571.98442471 213.76164046 -570.88671875 211.32421875 C-554.44440266 175.13402562 -531.2649487 141.72731802 -505 112 C-504.1853125 111.07316406 -503.370625 110.14632812 -502.53125 109.19140625 C-497.86292751 103.93954345 -493.01322324 98.92151794 -488 94 C-485.18640977 91.20081382 -482.39345595 88.38297682 -479.6171875 85.546875 C-473.21730566 79.03604708 -466.82791386 72.74429744 -459.64453125 67.0859375 C-456.86729968 64.89532944 -454.18867313 62.61070193 -451.5 60.3125 C-384.7825799 4.72903488 -297.9421696 -29.0697395 -212 -38 C-211.15719482 -38.09571289 -210.31438965 -38.19142578 -209.44604492 -38.29003906 C-138.33818575 -45.43475598 -64.31783591 -30.29744463 0 0 Z " fill="#CF9B93" transform="translate(804,227)"/>
<path d="M0 0 C55.77 0 111.54 0 169 0 C169.33 1.32 169.66 2.64 170 4 C152.78640777 7 152.78640777 7 145 7 C144.67 7.66 144.34 8.32 144 9 C143.13375 9.268125 142.2675 9.53625 141.375 9.8125 C134.19515263 12.33874259 130.49802513 16.03682691 126.9453125 22.71875 C123.65651254 30.65535816 124.47414352 39.00145449 127 47 C127.52016264 49.90890956 127.99175762 52.82098296 128.4375 55.7421875 C128.623125 56.48726563 128.80875 57.23234375 129 58 C129.66 58.33 130.32 58.66 131 59 C131.82140057 60.86600781 132.55622777 62.77037608 133.25 64.6875 C135.57585537 70.96383808 138.15971652 77.07704069 140.86328125 83.19921875 C142 86 142 86 142 88 C142.66 88.33 143.32 88.66 144 89 C144.90302199 91.07521399 145.7242974 93.18641268 146.5 95.3125 C148.14051938 99.85362244 148.14051938 99.85362244 150.15625 104.23046875 C151 106 151 106 151 109 C151.66 109.33 152.32 109.66 153 110 C154.12525342 112.46914417 155.14959136 114.91030488 156.125 117.4375 C156.40214844 118.13166016 156.67929687 118.82582031 156.96484375 119.54101562 C159 124.71913485 159 124.71913485 159 127 C159.66 127.33 160.32 127.66 161 128 C161.33333333 130 161.66666667 132 162 134 C162.66 134.33 163.32 134.66 164 135 C164.63385922 137.04243528 165.01826504 139.09132519 165.4375 141.1875 C165.623125 141.785625 165.80875 142.38375 166 143 C166.66 143.33 167.32 143.66 168 144 C169.0703125 146.1796875 169.0703125 146.1796875 170.125 148.875 C170.65480469 150.20144531 170.65480469 150.20144531 171.1953125 151.5546875 C172 154 172 154 172 157 C172.66 157.33 173.32 157.66 174 158 C175.0703125 160.43359375 175.0703125 160.43359375 176.125 163.4375 C176.65480469 164.92056641 176.65480469 164.92056641 177.1953125 166.43359375 C178 169 178 169 178 171 C178.66 171.33 179.32 171.66 180 172 C180.63385922 174.04243528 181.01826504 176.09132519 181.4375 178.1875 C181.623125 178.785625 181.80875 179.38375 182 180 C182.66 180.33 183.32 180.66 184 181 C184.33333333 183 184.66666667 185 185 187 C185.66 187.33 186.32 187.66 187 188 C187.63385922 190.04243528 188.01826504 192.09132519 188.4375 194.1875 C188.623125 194.785625 188.80875 195.38375 189 196 C189.66 196.33 190.32 196.66 191 197 C191.80147338 198.82592149 192.5162175 200.69011495 193.19140625 202.56640625 C195.10512702 207.70589307 197.13459932 212.75629443 199.33984375 217.77734375 C199.63210846 218.44319489 199.92437317 219.10904602 200.22549438 219.79507446 C201.12725602 221.84354602 202.03217386 223.89060164 202.9375 225.9375 C205.29678408 231.28942017 207.65124142 236.64345243 210 242 C210.29465149 242.67073547 210.58930298 243.34147095 210.8928833 244.03253174 C211.74641386 245.97959865 212.59469261 247.92886687 213.44140625 249.87890625 C213.93455322 251.01013916 214.4277002 252.14137207 214.93579102 253.30688477 C216 256 216 256 216 258 C216.66 258.33 217.32 258.66 218 259 C218.90856165 261.00931903 219.72828635 263.05925431 220.5 265.125 C221.15935547 266.88457031 221.15935547 266.88457031 221.83203125 268.6796875 C222.71803397 271.19842433 223.5129901 273.67067414 224.1875 276.25 C224.455625 277.1575 224.72375 278.065 225 279 C225.66 279.33 226.32 279.66 227 280 C227.63385922 282.04243528 228.01826504 284.09132519 228.4375 286.1875 C228.623125 286.785625 228.80875 287.38375 229 288 C229.66 288.33 230.32 288.66 231 289 C231.8908402 291.81505503 232.53765624 294.65881108 233.21875 297.53125 C233.4765625 298.3459375 233.734375 299.160625 234 300 C234.66 300.33 235.32 300.66 236 301 C237.0703125 303.43359375 237.0703125 303.43359375 238.125 306.4375 C238.65480469 307.92056641 238.65480469 307.92056641 239.1953125 309.43359375 C240 312 240 312 240 314 C240.66 314.33 241.32 314.66 242 315 C243.125 317.0625 243.125 317.0625 244 319 C246.44240025 318.06975374 246.44240025 318.06975374 247.2421875 314.421875 C247.62648926 313.20081055 247.62648926 313.20081055 248.01855469 311.95507812 C249.19000194 308.42791457 250.52435604 304.97368752 251.8828125 301.515625 C252.14414978 300.84752808 252.40548706 300.17943115 252.67474365 299.49108887 C253.76704672 296.70178985 254.86304778 293.91396868 255.96240234 291.12744141 C256.77279727 289.07072483 257.57808968 287.01206622 258.3828125 284.953125 C259.10041748 283.13022949 259.10041748 283.13022949 259.83251953 281.27050781 C260.82447899 278.49169374 261.52692515 275.90436371 262 273 C262.66 273 263.32 273 264 273 C264.33 270.69 264.66 268.38 265 266 C265.66 266 266.32 266 267 266 C267 264.35 267 262.7 267 261 C267.66 261 268.32 261 269 261 C269.33 258.69 269.66 256.38 270 254 C270.66 254 271.32 254 272 254 C272.19335938 253.14535156 272.38671875 252.29070312 272.5859375 251.41015625 C272.84632813 250.30542969 273.10671875 249.20070313 273.375 248.0625 C273.63023437 246.96035156 273.88546875 245.85820313 274.1484375 244.72265625 C274.56996094 243.37494141 274.56996094 243.37494141 275 242 C275.66 241.67 276.32 241.34 277 241 C277.78614308 239.18378166 277.78614308 239.18378166 278.40380859 236.98730469 C279.88657023 232.28254649 281.65228516 227.75838054 283.5390625 223.203125 C284.20840777 221.56904091 284.87767639 219.93492541 285.546875 218.30078125 C286.5899695 215.76353768 287.63452579 213.2269081 288.68066406 210.69091797 C289.69977353 208.21736516 290.71343325 205.74163199 291.7265625 203.265625 C292.04009674 202.51033508 292.35363098 201.75504517 292.67666626 200.97686768 C294.16469367 197.33382834 295.41623286 193.91944156 296 190 C296.66 190 297.32 190 298 190 C298.09152344 189.35289062 298.18304687 188.70578125 298.27734375 188.0390625 C299.43996329 183.14977601 301.57365002 178.66619057 303.56054688 174.0625 C303.87185547 173.32773437 304.18316406 172.59296875 304.50390625 171.8359375 C304.79080322 171.17126465 305.0777002 170.5065918 305.37329102 169.82177734 C306.16264967 167.84828793 306.16264967 167.84828793 306 165 C306.66 165 307.32 165 308 165 C308.19335938 164.21753906 308.38671875 163.43507813 308.5859375 162.62890625 C308.97652344 161.11103516 308.97652344 161.11103516 309.375 159.5625 C309.63023437 158.55316406 309.88546875 157.54382813 310.1484375 156.50390625 C311 154 311 154 313 153 C313.39589265 151.34707595 313.71827224 149.67616179 314 148 C314.45471817 146.24348866 314.93387445 144.49311847 315.4375 142.75 C315.68371094 141.87859375 315.92992187 141.0071875 316.18359375 140.109375 C317 138 317 138 319 137 C319 135.35 319 133.7 319 132 C319.66 132 320.32 132 321 132 C321.18175781 131.32195312 321.36351562 130.64390625 321.55078125 129.9453125 C322.35689358 126.96062993 323.17640808 123.97990531 324 121 C324.26296875 120.03578125 324.5259375 119.0715625 324.796875 118.078125 C325.04953125 117.18609375 325.3021875 116.2940625 325.5625 115.375 C325.90474609 114.14910156 325.90474609 114.14910156 326.25390625 112.8984375 C327 111 327 111 329 110 C329 108.02 329 106.04 329 104 C329.66 104 330.32 104 331 104 C332.14051606 99.01716284 333.22225866 94.05531868 334 89 C334.66 89 335.32 89 336 89 C336.14695312 88.17822266 336.14695312 88.17822266 336.296875 87.33984375 C337.30838472 81.97709823 338.59473923 76.75725222 340.0625 71.5 C341.50830358 66.22013952 342.50872027 61.22044338 342.82421875 55.7578125 C343 54 343 54 344 53 C345.22847885 40.04420785 345.14084108 27.23576054 336.875 16.625 C329.2327221 8.62192787 318.61701543 6.17966838 308 5 C305.99810127 4.67826628 303.99723547 4.34951621 302 4 C302.33 2.68 302.66 1.36 303 0 C343.59 0 384.18 0 426 0 C426 1.32 426 2.64 426 4 C420.12636432 6.1084846 414.14788883 7.47535186 408 8.5 C407.34 8.665 406.68 8.83 406 9 C405.67 9.66 405.34 10.32 405 11 C402.78782142 12.29557869 400.51474828 13.43066455 398.2265625 14.5859375 C395.91598258 15.86826111 395.91598258 15.86826111 394.5234375 17.9765625 C393 20 393 20 390.62890625 21.359375 C387.29493287 23.44001218 385.24038548 26.13914698 382.9375 29.25 C382.51662109 29.79785156 382.09574219 30.34570312 381.66210938 30.91015625 C379.18611468 34.18845 377.07384415 37.5328921 375.0859375 41.13696289 C373.89366352 43.18243113 372.57303801 45.09840998 371.22265625 47.04296875 C367.48805155 52.584451 364.45515347 58.47227897 361.41333008 64.40991211 C360.44255495 66.30264431 359.46118544 68.18959305 358.47851562 70.07617188 C354.97341376 76.85377868 351.77530487 83.66527396 349.02758789 90.79370117 C348 93 348 93 346 94 C345.28771856 95.98421259 344.63484067 97.98967123 344 100 C343.35034843 101.77714602 342.68263546 103.54776093 342 105.3125 C341.67 106.17488281 341.34 107.03726563 341 107.92578125 C340 110 340 110 338 111 C337.2551136 112.76423887 337.2551136 112.76423887 336.66796875 114.9140625 C334.68335511 121.22136198 331.85127652 127.08750536 329.05273438 133.06640625 C328.66021484 133.91847656 328.26769531 134.77054688 327.86328125 135.6484375 C327.50532471 136.41333496 327.14736816 137.17823242 326.77856445 137.96630859 C325.82123566 140.10401309 325.82123566 140.10401309 326 143 C325.34 143 324.68 143 324 143 C322.515 148.94 322.515 148.94 321 155 C320.34 155 319.68 155 319 155 C318.40251953 156.87558594 318.40251953 156.87558594 317.79296875 158.7890625 C315.57180707 165.45646494 312.78716309 171.88610718 310.05273438 178.35546875 C309.66021484 179.29777344 309.26769531 180.24007812 308.86328125 181.2109375 C308.50532471 182.05962402 308.14736816 182.90831055 307.77856445 183.78271484 C306.83434823 186.08009488 306.83434823 186.08009488 307 189 C306.34 189 305.68 189 305 189 C304.86102295 189.5369751 304.7220459 190.0739502 304.57885742 190.62719727 C302.24014847 199.03773722 298.76104438 206.94040448 295.3125 214.9375 C294.11495855 217.71487131 292.92446049 220.49510389 291.73828125 223.27734375 C291.46333328 223.90857651 291.18838531 224.53980927 290.90510559 225.19017029 C289.71462345 227.98429275 289 229.92530982 289 233 C288.34 233 287.68 233 287 233 C286.608125 234.19625 286.21625 235.3925 285.8125 236.625 C285.21114448 238.41761216 284.60650963 240.20912511 284 242 C283.38511719 243.82144531 283.38511719 243.82144531 282.7578125 245.6796875 C282.31844566 246.95337959 281.87834219 248.2268178 281.4375 249.5 C281.02371094 250.7065625 280.60992188 251.913125 280.18359375 253.15625 C279 256 279 256 277 257 C276.59270772 259.32156597 276.25561323 261.6568787 276 264 C275.34 264 274.68 264 274 264 C273.82984375 264.61746094 273.6596875 265.23492188 273.484375 265.87109375 C271.96545533 271.17923323 270.17805171 276.11945133 267.76953125 281.08984375 C266.81316058 283.12055598 266.81316058 283.12055598 267 286 C266.34 286 265.68 286 265 286 C265 287.65 265 289.3 265 291 C264.34 291 263.68 291 263 291 C262.51787786 292.56159059 262.03944127 294.12431928 261.5625 295.6875 C261.29566406 296.55761719 261.02882813 297.42773438 260.75390625 298.32421875 C260.03655471 300.87025921 259.482459 303.4003423 259 306 C258.34 306 257.68 306 257 306 C256.80664062 306.65226562 256.61328125 307.30453125 256.4140625 307.9765625 C255.61658104 310.65325771 254.80876432 313.32669527 254 316 C253.649375 317.175625 253.29875 318.35125 252.9375 319.5625 C252 322 252 322 250 323 C249.22956658 324.77554321 249.22956658 324.77554321 248.625 326.9375 C247.24731319 331.35316285 245.57384203 335.57857499 243.76953125 339.8359375 C242.83247839 342.0882994 242.83247839 342.0882994 243 345 C242.34 345 241.68 345 241 345 C239.29304267 350.65571861 237.60665302 356.31492008 236 362 C235.34 362 234.68 362 234 362 C233.01 365.96 232.02 369.92 231 374 C230.34 374 229.68 374 229 374 C229 375.65 229 377.3 229 379 C228.34 379 227.68 379 227 379 C226.80664062 379.65226562 226.61328125 380.30453125 226.4140625 380.9765625 C225.87676873 382.77995445 225.33491965 384.58199405 224.7890625 386.3828125 C224.17581309 388.41685757 223.58363947 390.45726185 223 392.5 C222 395 222 395 219 397 C210.73453665 394.58583001 204.00110062 390.84688198 199.68896484 383.13818359 C195.00831298 374.0405233 191.25745827 364.47329864 187.55615234 354.94482422 C186.31930062 351.76938291 184.98063446 348.6607713 183.55078125 345.56640625 C182 342 182 342 182 339 C181.34 338.67 180.68 338.34 180 338 C178.87474658 335.53085583 177.85040864 333.08969512 176.875 330.5625 C176.59785156 329.86833984 176.32070313 329.17417969 176.03515625 328.45898438 C174 323.28086515 174 323.28086515 174 321 C173.34 320.67 172.68 320.34 172 320 C171.66666667 318 171.33333333 316 171 314 C170.34 313.67 169.68 313.34 169 313 C168.66666667 311 168.33333333 309 168 307 C167.34 306.67 166.68 306.34 166 306 C165.13037109 304.35766602 165.13037109 304.35766602 164.2734375 302.25390625 C163.9640625 301.49916016 163.6546875 300.74441406 163.3359375 299.96679688 C163.01882813 299.17337891 162.70171875 298.37996094 162.375 297.5625 C162.05015625 296.77294922 161.7253125 295.98339844 161.390625 295.16992188 C159 289.27873884 159 289.27873884 159 287 C158.34 286.67 157.68 286.34 157 286 C155.96484375 283.890625 155.96484375 283.890625 154.9375 281.25 C154.59589844 280.38890625 154.25429688 279.5278125 153.90234375 278.640625 C153 276 153 276 152.50390625 273.234375 C152.33761719 272.49703125 152.17132812 271.7596875 152 271 C151.34 270.67 150.68 270.34 150 270 C148 264.77777778 148 264.77777778 148 262 C147.34 261.67 146.68 261.34 146 261 C145.16699219 259.25976563 145.16699219 259.25976563 144.296875 256.90625 C142.56528847 252.39577229 140.70720597 247.95464435 138.765625 243.53125 C138.48054077 242.87898437 138.19545654 242.22671875 137.9017334 241.5546875 C136.71554072 238.84149739 135.52689604 236.12940316 134.33447266 233.41894531 C133.4541483 231.41610097 132.57832215 229.411339 131.703125 227.40625 C131.18395508 226.22353516 130.66478516 225.04082031 130.12988281 223.82226562 C129 221 129 221 129 219 C128.34 218.67 127.68 218.34 127 218 C125.85903179 215.49227832 124.81579082 213.00003824 123.8125 210.4375 C123.19441853 208.89254388 122.57457949 207.34828992 121.953125 205.8046875 C121.47456055 204.61504395 121.47456055 204.61504395 120.98632812 203.40136719 C119.13443868 198.89265812 117.13767329 194.44665367 115.1340332 190.00366211 C113 185.21206095 113 185.21206095 113 183 C112.34 182.67 111.68 182.34 111 182 C110.11364705 179.44730352 109.46440296 176.86380263 108.78125 174.25 C108.2328113 171.82546793 108.2328113 171.82546793 106 171 C105.25976679 169.02604477 104.61238899 167.01728138 104 165 C103.50865282 163.39316191 103.00830805 161.7890535 102.5 160.1875 C102.2628125 159.41792969 102.025625 158.64835938 101.78125 157.85546875 C101.15549507 155.80658446 101.15549507 155.80658446 99 155 C98.29204865 153.01423835 97.63313749 151.01086583 97 149 C96.08596867 146.84811293 95.14416929 144.70787759 94.1796875 142.578125 C93.64472656 141.38832031 93.10976563 140.19851563 92.55859375 138.97265625 C91.71252774 137.10024746 90.86521581 135.22841019 90.01708984 133.35693359 C89.19319938 131.53622569 88.37387043 129.71345579 87.5546875 127.890625 C86.81968018 126.26688965 86.81968018 126.26688965 86.06982422 124.61035156 C85 122 85 122 85 120 C84.34 119.67 83.68 119.34 83 119 C82.66666667 117 82.33333333 115 82 113 C81.34 112.67 80.68 112.34 80 112 C79.36614078 109.95756472 78.98173496 107.90867481 78.5625 105.8125 C78.376875 105.214375 78.19125 104.61625 78 104 C77.34 103.67 76.68 103.34 76 103 C75.36614078 100.95756472 74.98173496 98.90867481 74.5625 96.8125 C74.376875 96.214375 74.19125 95.61625 74 95 C73.34 94.67 72.68 94.34 72 94 C71.30356015 92.01017187 70.645124 90.00705243 70 88 C68.9680787 85.63451887 67.89472827 83.29233657 66.8046875 80.953125 C66 79 66 79 66 77 C65.34 76.67 64.68 76.34 64 76 C63.66666667 74 63.33333333 72 63 70 C62.01 69.505 62.01 69.505 61 69 C60.11364705 66.44730352 59.46440296 63.86380263 58.78125 61.25 C58.2328113 58.82546793 58.2328113 58.82546793 56 58 C55.30834284 56.00850438 54.64721869 54.00637793 54 52 C52.86839944 49.55531577 51.7157454 47.15097 50.5 44.75 C50.19191406 44.12609375 49.88382812 43.5021875 49.56640625 42.859375 C48.24157159 40.22107766 47.10147397 38.10147397 45 36 C43.9416947 34.24718185 42.9760909 32.45591759 42 30.65625 C40.51420638 28.19540432 38.45528947 26.48122807 36.375 24.5 C34 22 34 22 34 20 C33.34 20 32.68 20 32 20 C31.484375 19.278125 30.96875 18.55625 30.4375 17.8125 C27.59173019 14.52891945 24.76536398 13.04249876 20.92578125 11.11328125 C19 10 19 10 18 8 C16.17177803 7.34626641 16.17177803 7.34626641 13.96484375 6.9296875 C12.75151367 6.66865234 12.75151367 6.66865234 11.51367188 6.40234375 C10.66353516 6.22832031 9.81339844 6.05429687 8.9375 5.875 C8.08349609 5.69324219 7.22949219 5.51148438 6.34960938 5.32421875 C4.23466704 4.87523658 2.11752353 4.43664649 0 4 C0 2.68 0 1.36 0 0 Z " fill="#FFFFFF" transform="translate(450,413)"/>
<path d="M0 0 C0.99 1.98 0.99 1.98 2 4 C1.34 4.33 0.68 4.66 0 5 C0.33 6.32 0.66 7.64 1 9 C0.34 9 -0.32 9 -1 9 C-1.33 12.3 -1.66 15.6 -2 19 C-2.66 19 -3.32 19 -4 19 C-4.14695312 19.57105469 -4.29390625 20.14210938 -4.4453125 20.73046875 C-7.2157876 30.745577 -11.10901891 40.36989675 -17.80078125 48.4140625 C-19.21308961 50.10601394 -19.21308961 50.10601394 -20 53 C-21.53125 54.54296875 -21.53125 54.54296875 -23.5 56.1875 C-25.70671499 58.04455944 -27.88401021 59.88907326 -29.96875 61.8828125 C-37.84476076 69.36502272 -47.27047509 74.75646606 -56.67578125 80.09765625 C-64.36070422 84.55615251 -71.08277481 89.24832442 -74 98 C-74.66 98 -75.32 98 -76 98 C-76 98.99 -76 99.98 -76 101 C-76.556875 101.53625 -77.11375 102.0725 -77.6875 102.625 C-80.47701327 105.48990552 -82.03413777 108.5377649 -83.8515625 112.07421875 C-85 114 -85 114 -87 115 C-87.68139407 116.66069996 -88.3436339 118.32924994 -89 120 C-90.45296763 122.78790498 -92.01354311 125.51452687 -93.5625 128.25 C-94.46850604 129.87050262 -95.37343009 131.49161058 -96.27734375 133.11328125 C-96.73351074 133.93135254 -97.18967773 134.74942383 -97.65966797 135.59228516 C-109.89358958 154.8965085 -109.89358958 154.8965085 -116 176 C-116.66 176 -117.32 176 -118 176 C-118 177.65 -118 179.3 -118 181 C-118.66 181 -119.32 181 -120 181 C-120 182.65 -120 184.3 -120 186 C-120.66 186 -121.32 186 -122 186 C-122.66 189.63 -123.32 193.26 -124 197 C-124.66 197 -125.32 197 -126 197 C-127.14051606 201.98283716 -128.22225866 206.94468132 -129 212 C-129.66 212 -130.32 212 -131 212 C-131.13277344 212.60328125 -131.26554687 213.2065625 -131.40234375 213.828125 C-131.57894531 214.62734375 -131.75554687 215.4265625 -131.9375 216.25 C-132.11152344 217.03890625 -132.28554688 217.8278125 -132.46484375 218.640625 C-132.947556 220.76878703 -133.46163178 222.88532842 -134 225 C-132.74239508 223.81470523 -132.74239508 223.81470523 -131.25 221.25 C-129 218 -129 218 -126.73828125 215.953125 C-122.84575681 212.13951278 -120.52801898 207.23788 -117.9375 202.5 C-114.91252482 197.00897139 -112.02484128 191.83352763 -108 187 C-107.67 186.01 -107.34 185.02 -107 184 C-103.22699052 180.57796815 -99.25559246 177.80482231 -95 175 C-94.34 174.34 -93.68 173.68 -93 173 C-90.67771084 171.90146616 -88.36627321 170.8680745 -86 169.875 C-85.35804688 169.59785156 -84.71609375 169.32070313 -84.0546875 169.03515625 C-79.26254618 167 -79.26254618 167 -77 167 C-76.67 166.34 -76.34 165.68 -76 165 C-73.8203125 164.18359375 -73.8203125 164.18359375 -71.125 163.4375 C-70.24070312 163.18871094 -69.35640625 162.93992187 -68.4453125 162.68359375 C-67.23488281 162.34521484 -67.23488281 162.34521484 -66 162 C-65.01 161.67 -64.02 161.34 -63 161 C-63.99 164.96 -63.99 164.96 -65 169 C-65.66 169 -66.32 169 -67 169 C-67.268125 169.70125 -67.53625 170.4025 -67.8125 171.125 C-70.43779769 177.48098388 -73.76647444 182.62787343 -78 188 C-78.61746094 188.81984375 -79.23492187 189.6396875 -79.87109375 190.484375 C-82.09525757 193.11256124 -84.40273296 195.08688498 -87.125 197.1875 C-90.68924859 199.95006324 -90.68924859 199.95006324 -94 203 C-95.78826624 203.92351778 -97.60499616 204.79270742 -99.4375 205.625 C-100.88962891 206.29402344 -100.88962891 206.29402344 -102.37109375 206.9765625 C-105 208 -105 208 -108 208 C-108.33 208.66 -108.66 209.32 -109 210 C-110.33848432 210.42761206 -111.6972818 210.79247687 -113.0625 211.125 C-120.5456649 213.46423496 -125.31105487 219.29282703 -129 226 C-129.98981992 227.29948425 -130.99099066 228.59035884 -132 229.875 C-135.65831494 234.69815154 -138 238.78940797 -138 245 C-138.66 245 -139.32 245 -140 245 C-140.185625 246.918125 -140.185625 246.918125 -140.375 248.875 C-140.84595089 253.20228785 -141.64726117 257.39506448 -142.59765625 261.640625 C-143.07305333 264.02595147 -143.07305333 264.02595147 -142.99609375 266.5859375 C-143 269 -143 269 -144 272.375 C-145.02463981 276.08931931 -145.07656911 279.17154464 -145 283 C-145.33 283.33 -145.66 283.66 -146 284 C-148.02341238 298.34111983 -148.19415527 312.73379133 -148.1875 327.1875 C-148.18831573 328.03863373 -148.18913147 328.88976746 -148.18997192 329.76669312 C-148.18970665 332.21303714 -148.18088045 334.65916159 -148.16796875 337.10546875 C-148.16677032 337.84313477 -148.1655719 338.58080078 -148.16433716 339.34082031 C-148.13328637 342.72987696 -147.90232679 345.73962215 -147 349 C-146.92181364 350.51395696 -146.89210091 352.03093507 -146.90234375 353.546875 C-146.90717773 354.81337891 -146.90717773 354.81337891 -146.91210938 356.10546875 C-146.92467773 357.41451172 -146.92467773 357.41451172 -146.9375 358.75 C-146.94201172 359.63816406 -146.94652344 360.52632812 -146.95117188 361.44140625 C-146.962926 363.62767329 -146.97935751 365.81380179 -147 368 C-146.34 368.33 -145.68 368.66 -145 369 C-144.5859375 371.72265625 -144.5859375 371.72265625 -144.375 375.0625 C-144.26285156 376.71958984 -144.26285156 376.71958984 -144.1484375 378.41015625 C-144.09945312 379.26480469 -144.05046875 380.11945313 -144 381 C-137.92564205 358.71024366 -137.92564205 358.71024366 -136.03515625 335.76171875 C-136.00185211 333.14549358 -135.69025083 331.3767744 -134.8125 328.9375 C-134.54050781 328.17566406 -134.26851563 327.41382813 -133.98828125 326.62890625 C-133.66214844 325.76136719 -133.33601563 324.89382813 -133 324 C-132.60167969 322.93652344 -132.20335937 321.87304688 -131.79296875 320.77734375 C-124.44699074 301.44699074 -124.44699074 301.44699074 -121 298 C-120.11975161 296.96276463 -119.24542994 295.92048848 -118.375 294.875 C-115.32052553 291.27750784 -112.0234275 287.98271352 -108.63671875 284.69921875 C-106.91730963 283.08328716 -106.91730963 283.08328716 -106 281 C-105.34 281 -104.68 281 -104 281 C-103.67 280.34 -103.34 279.68 -103 279 C-101.71704964 277.96236103 -100.39945749 276.96705786 -99.0625 276 C-96.86745769 274.40650286 -94.92136696 272.92136696 -93 271 C-91.70399488 269.93788116 -90.38953895 268.89808031 -89.0625 267.875 C-88.02802734 267.06675781 -88.02802734 267.06675781 -86.97265625 266.2421875 C-85 265 -85 265 -82 265 C-82.59469351 269.85666369 -83.61685306 274.31266871 -85 279 C-85.18175781 279.81726563 -85.36351562 280.63453125 -85.55078125 281.4765625 C-88.46413027 294.45258327 -93.51322329 308.36267399 -100 320 C-100.66 320.33 -101.32 320.66 -102 321 C-102.68926186 322.32179435 -103.35265473 323.65717971 -104 325 C-105.89575548 327.74634371 -107.94836314 330.36866231 -110 333 C-110.70962891 333.91652344 -110.70962891 333.91652344 -111.43359375 334.8515625 C-112.57153537 336.27652203 -113.78009355 337.64454839 -115 339 C-115.66 339 -116.32 339 -117 339 C-117.33 339.99 -117.66 340.98 -118 342 C-119.671875 343.6484375 -119.671875 343.6484375 -121.75 345.375 C-122.471875 345.99246094 -123.19375 346.60992188 -123.9375 347.24609375 C-124.618125 347.82488281 -125.29875 348.40367187 -126 349 C-130.26524303 352.78055632 -133.00585013 356.67484 -135 362 C-135 362.99 -135 363.98 -135 365 C-135.66 365 -136.32 365 -137 365 C-137.185625 366.60875 -137.185625 366.60875 -137.375 368.25 C-137.80282802 371.73374248 -138.37952232 375.1706989 -139 378.625 C-140.15854542 385.38606357 -140.61533358 392.15698685 -141 399 C-140.34 399.33 -139.68 399.66 -139 400 C-138.40234375 402.36328125 -138.40234375 402.36328125 -137.9375 405.3125 C-137.31867977 409.23622424 -137.31867977 409.23622424 -136.44140625 413.10546875 C-136 415 -136 415 -136 419 C-135.34 419.33 -134.68 419.66 -134 420 C-133.25390625 422.1875 -133.25390625 422.1875 -132.5625 425 C-131.42302425 429.46488458 -130.10521665 433.78852381 -128.55078125 438.125 C-128 440 -128 440 -128 443 C-127.34 443.33 -126.68 443.66 -126 444 C-124.87292591 446.6366526 -123.84780253 449.24483845 -122.875 451.9375 C-122.59785156 452.67935547 -122.32070313 453.42121094 -122.03515625 454.18554688 C-120 459.71455511 -120 459.71455511 -120 462 C-119.34 462.33 -118.68 462.66 -118 463 C-116.97851562 464.77832031 -116.97851562 464.77832031 -115.90625 467.078125 C-115.51566406 467.90957031 -115.12507813 468.74101563 -114.72265625 469.59765625 C-114.31917969 470.47292969 -113.91570312 471.34820313 -113.5 472.25 C-113.09652344 473.10980469 -112.69304687 473.96960938 -112.27734375 474.85546875 C-110.70311711 478.22732713 -109.16449295 481.56653886 -107.84375 485.046875 C-107.16936601 487.18353829 -107.16936601 487.18353829 -105 488 C-103.9296875 489.84765625 -103.9296875 489.84765625 -102.875 492.0625 C-102.52179688 492.79597656 -102.16859375 493.52945312 -101.8046875 494.28515625 C-101.53914062 494.85105469 -101.27359375 495.41695312 -101 496 C-101.13277344 495.40832031 -101.26554688 494.81664062 -101.40234375 494.20703125 C-101.57894531 493.41683594 -101.75554687 492.62664062 -101.9375 491.8125 C-102.11152344 491.03519531 -102.28554688 490.25789063 -102.46484375 489.45703125 C-103.2960846 485.64060428 -104.03769115 481.8207024 -104.68359375 477.96875 C-104.80669922 477.24042969 -104.92980469 476.51210938 -105.05664062 475.76171875 C-105.31043997 474.25454111 -105.56044474 472.74671955 -105.80664062 471.23828125 C-106.48876047 467.24452255 -107.35436598 463.72921903 -109 460 C-110.85097595 453.68490558 -111.61125649 447.5623607 -112 441 C-112.05414063 440.22011719 -112.10828125 439.44023438 -112.1640625 438.63671875 C-112.91881334 418.22413913 -104.24048589 397.00133083 -92 381 C-91.54625 380.195625 -91.0925 379.39125 -90.625 378.5625 C-88.7543729 375.61266496 -86.46404614 373.46404614 -84 371 C-83.62875 370.2575 -83.2575 369.515 -82.875 368.75 C-82 367 -82 367 -79 366 C-78.94982341 371.40363273 -78.91392111 376.80712404 -78.89013672 382.2109375 C-78.88020091 384.04169076 -78.86664763 385.87242868 -78.84912109 387.703125 C-78.64263743 409.85760741 -80.7164629 429.84678895 -91.29296875 449.63671875 C-92.6280898 452.26724329 -93.38290739 454.19186472 -94 457 C-94.66 457 -95.32 457 -96 457 C-96.28875 457.9075 -96.5775 458.815 -96.875 459.75 C-98 463 -98 463 -99.04296875 464.86328125 C-102.5496168 472.69240976 -99.62044371 482.80148893 -97.75 490.75 C-97.54560303 491.62454834 -97.34120605 492.49909668 -97.13061523 493.40014648 C-94.7710615 502.83568718 -91.00205534 510.57442712 -85.3125 518.4375 C-84.78503174 519.17540771 -84.25756348 519.91331543 -83.71411133 520.67358398 C-79.50641254 526.47899792 -74.92831572 531.79416748 -70 537 C-68.8273213 538.34896373 -67.66039366 539.70295411 -66.5 541.0625 C-59.19781759 549.71288441 -59.19781759 549.71288441 -50 556 C-48.99357052 557.32848691 -47.99307821 558.66150329 -47 560 C-46.01 560.33 -45.02 560.66 -44 561 C-42.90699999 562.12715626 -41.81535998 563.25566187 -40.73046875 564.390625 C-34.09723185 570.87183659 -34.09723185 570.87183659 -26 574 C-26 574.66 -26 575.32 -26 576 C-25.27296875 576.27585937 -24.5459375 576.55171875 -23.796875 576.8359375 C-21.1419201 577.94093269 -18.74606667 579.20208301 -16.25 580.625 C-4.27316436 587.21790145 8.01682173 592.72028355 21 597 C21 597.66 21 598.32 21 599 C22.65 599.33 24.3 599.66 26 600 C25.01 600.66 24.02 601.32 23 602 C23 601.34 23 600.68 23 600 C19.04 599.67 15.08 599.34 11 599 C11 598.34 11 597.68 11 597 C9.02 597 7.04 597 5 597 C5 596.34 5 595.68 5 595 C-0.94 593.515 -0.94 593.515 -7 592 C-7 591.34 -7 590.68 -7 590 C-7.9075 589.814375 -8.815 589.62875 -9.75 589.4375 C-14.77952039 588.04327977 -19.01359346 585.17357491 -23.42578125 582.4609375 C-25.79658564 580.83547382 -25.79658564 580.83547382 -28 581 C-28.8353125 580.13375 -28.8353125 580.13375 -29.6875 579.25 C-32.51536158 576.49856711 -35.54702052 574.85509958 -39 573 C-43.01213956 570.80287596 -45.77219377 568.22780623 -49 565 C-49.66 564.690625 -50.32 564.38125 -51 564.0625 C-53.47971952 562.745149 -54.79397318 560.88816349 -56.515625 558.71484375 C-59.99911341 554.69049793 -64.25764068 551.32112959 -68.48828125 548.11328125 C-71.13814792 545.88376668 -73.08871925 543.56080671 -75.1875 540.8125 C-77.65090988 537.3747194 -77.65090988 537.3747194 -81 535 C-81.433125 534.2575 -81.86625 533.515 -82.3125 532.75 C-83.91150838 529.89183123 -83.91150838 529.89183123 -86.4375 527.625 C-88.7976946 525.20723968 -90.18825255 522.9632212 -91.78515625 520.01953125 C-96.31068729 512.49638158 -102.29028894 506.54791284 -109 501 C-110.37605684 499.75116351 -111.75106423 498.50116965 -113.125 497.25 C-116.20939293 494.53062399 -119.25499127 492.73549185 -123 491 C-123.33 490.34 -123.66 489.68 -124 489 C-126.32741989 488.62761282 -128.66235715 488.30163134 -131 488 C-133.33522349 487.33998474 -135.6683288 486.6724569 -138 486 C-139.89772001 485.56646064 -141.79548514 485.13306498 -143.69506836 484.70776367 C-155.81534308 481.92311533 -165.45228071 476.99155452 -175 469 C-175.95519531 468.25105469 -176.91039062 467.50210937 -177.89453125 466.73046875 C-178.87808594 465.95316406 -179.86164063 465.17585938 -180.875 464.375 C-181.77992188 463.66085937 -182.68484375 462.94671875 -183.6171875 462.2109375 C-186 460 -186 460 -187.39819336 457.62475586 C-189.03788511 454.93792062 -190.77412626 452.99691323 -193.01171875 450.79296875 C-193.76904297 450.04208984 -194.52636719 449.29121094 -195.30664062 448.51757812 C-196.48516602 447.36418945 -196.48516602 447.36418945 -197.6875 446.1875 C-198.88342773 445.00510742 -198.88342773 445.00510742 -200.10351562 443.79882812 C-202.0645551 441.86127415 -204.03011881 439.92855724 -206 438 C-204.68 437.34 -203.36 436.68 -202 436 C-201.67 436.66 -201.34 437.32 -201 438 C-198.69 437.67 -196.38 437.34 -194 437 C-194 437.66 -194 438.32 -194 439 C-192.35 438.67 -190.7 438.34 -189 438 C-189 438.66 -189 439.32 -189 440 C-187.86820312 440.103125 -186.73640625 440.20625 -185.5703125 440.3125 C-161.68242732 443.33654876 -141.68712549 459.83129123 -127.3203125 478.140625 C-126 480 -126 480 -124.8125 482.4375 C-122.63073062 485.5220705 -120.36492992 486.7891889 -117.140625 488.6640625 C-113.79043898 490.75487203 -110.9149379 493.34922834 -108 496 C-108.34786708 494.02463255 -108.34786708 494.02463255 -109 492 C-109.66 491.67 -110.32 491.34 -111 491 C-111.96142578 489.44946289 -111.96142578 489.44946289 -112.9453125 487.47265625 C-113.29980469 486.76302734 -113.65429688 486.05339844 -114.01953125 485.32226562 C-114.38433594 484.57654297 -114.74914062 483.83082031 -115.125 483.0625 C-115.49753906 482.32064453 -115.87007813 481.57878906 -116.25390625 480.81445312 C-119 475.26694139 -119 475.26694139 -119 473 C-119.66 472.67 -120.32 472.34 -121 472 C-121.88509831 470.20059222 -122.68425827 468.35846557 -123.4375 466.5 C-123.87578125 465.42105469 -124.3140625 464.34210938 -124.765625 463.23046875 C-126.09958627 459.73937391 -127.27132385 456.22954148 -128.32421875 452.64453125 C-128.87660642 450.78781293 -128.87660642 450.78781293 -131 450 C-131 448.68 -131 447.36 -131 446 C-131.66 445.67 -132.32 445.34 -133 445 C-133 443.68 -133 442.36 -133 441 C-133.66 440.67 -134.32 440.34 -135 440 C-135.8515625 437.85546875 -135.8515625 437.85546875 -136.625 435.1875 C-137.01558594 433.87845703 -137.01558594 433.87845703 -137.4140625 432.54296875 C-138 430 -138 430 -138 426 C-138.66 425.67 -139.32 425.34 -140 425 C-139.67 424.34 -139.34 423.68 -139 423 C-139.66 422.67 -140.32 422.34 -141 422 C-141 420.35 -141 418.7 -141 417 C-141.66 416.67 -142.32 416.34 -143 416 C-143.20625 414.783125 -143.4125 413.56625 -143.625 412.3125 C-144.96119415 405.80626232 -148.39271995 400.45746547 -151.85253906 394.88671875 C-152.99257693 393.01220542 -154.05605765 391.10754625 -155.1171875 389.1875 C-161.08973662 378.85603321 -168.76802447 373.34267598 -178.90625 367.28613281 C-184.15359037 364.06283652 -188.74863439 360.4751217 -193 356 C-193.845625 355.175 -194.69125 354.35 -195.5625 353.5 C-199.47599396 349.48616004 -202.66510708 345.15138397 -205.6875 340.4375 C-206.28949219 339.50808594 -206.89148438 338.57867188 -207.51171875 337.62109375 C-208.82579906 335.30679483 -209.38401654 333.53877295 -210 331 C-210.66 330.67 -211.32 330.34 -212 330 C-212.87407057 328.02324716 -213.65402436 326.00464313 -214.390625 323.97265625 C-214.7286187 323.04821716 -214.7286187 323.04821716 -215.07344055 322.10510254 C-215.80639587 320.09351187 -216.52852024 318.07823211 -217.25 316.0625 C-217.74828289 314.68534473 -218.24690002 313.30831035 -218.74584961 311.93139648 C-223.15376371 299.7271349 -227.50000467 287.49998332 -231 275 C-224.38265189 279.35776583 -218.03270678 283.84706295 -212 289 C-211.21882813 289.64195312 -211.21882813 289.64195312 -210.421875 290.296875 C-204.94278868 294.85424586 -199.99588967 299.92550368 -195 305 C-194.44957031 305.54140625 -193.89914062 306.0828125 -193.33203125 306.640625 C-191.38728217 308.62529561 -189.72785549 310.82624632 -188 313 C-187.34 313.66 -186.68 314.32 -186 315 C-185 316.66666667 -184 318.33333333 -183 320 C-182.34 320.66 -181.68 321.32 -181 322 C-180.31758876 323.32534415 -179.65308676 324.65996272 -179 326 C-178.05014587 327.5469053 -177.09112784 329.08820597 -176.125 330.625 C-169 342.39522059 -169 342.39522059 -169 348 C-168.34 348.33 -167.68 348.66 -167 349 C-166.2890625 350.72265625 -166.2890625 350.72265625 -165.625 353.0625 C-165.36589844 353.9596875 -165.10679687 354.856875 -164.83984375 355.78125 C-164.22065941 358.15430999 -163.65466606 360.51273574 -163.12890625 362.90625 C-161.33138779 370.93947503 -159.29129571 377.50934393 -154 384 C-151 387.7587007 -151 387.7587007 -151 390 C-150.34 390 -149.68 390 -149 390 C-149.47318353 386.04092723 -149.95455618 382.08289307 -150.4375 378.125 C-150.57220703 376.99707031 -150.70691406 375.86914062 -150.84570312 374.70703125 C-150.97783203 373.63066406 -151.10996094 372.55429687 -151.24609375 371.4453125 C-151.36654053 370.45031738 -151.4869873 369.45532227 -151.61108398 368.43017578 C-151.87545305 365.99888371 -151.87545305 365.99888371 -153 364 C-153.13901081 362.61186238 -153.22522358 361.21817395 -153.28125 359.82421875 C-153.31863281 358.99599609 -153.35601562 358.16777344 -153.39453125 357.31445312 C-153.44673828 356.01411133 -153.44673828 356.01411133 -153.5 354.6875 C-153.56936478 352.98292467 -153.64218339 351.27848577 -153.71875 349.57421875 C-153.74904297 348.81713623 -153.77933594 348.06005371 -153.81054688 347.2800293 C-153.94525349 344.99495485 -153.94525349 344.99495485 -154.51147461 342.79150391 C-155.21402258 338.77704437 -155.12237811 334.82900723 -155.09765625 330.76171875 C-155.0962413 329.88095169 -155.09482635 329.00018463 -155.09336853 328.09272766 C-155.08778937 325.29094997 -155.07524071 322.48925338 -155.0625 319.6875 C-155.05748231 317.78320428 -155.05291987 315.87890731 -155.04882812 313.97460938 C-155.03782677 309.31637519 -155.02057649 304.65820133 -155 300 C-155.66 299.67 -156.32 299.34 -157 299 C-157.421875 297.27734375 -157.421875 297.27734375 -157.75 294.9375 C-160.40493658 280.79134938 -165.79725845 270.20274155 -176 260 C-177.19575175 258.24867491 -178.35852802 256.47467753 -179.5 254.6875 C-180.1084375 253.74261719 -180.716875 252.79773438 -181.34375 251.82421875 C-183 249 -183 249 -184.09375 246.20703125 C-184.78589804 243.83308467 -184.78589804 243.83308467 -187 243 C-187.63385922 240.95756472 -188.01826504 238.90867481 -188.4375 236.8125 C-188.623125 236.214375 -188.80875 235.61625 -189 235 C-189.66 234.67 -190.32 234.34 -191 234 C-190.67 233.34 -190.34 232.68 -190 232 C-190.66 231.67 -191.32 231.34 -192 231 C-192.64419562 227.96395845 -193.14532522 225.00742208 -193.5625 221.9375 C-193.75537598 220.55643066 -193.75537598 220.55643066 -193.95214844 219.14746094 C-194.92254602 211.69610467 -195.43276899 204.2555387 -195.75 196.75 C-195.79455322 195.69675537 -195.83910645 194.64351074 -195.88500977 193.55834961 C-196.0711288 188.03468431 -196.0711288 188.03468431 -196 186 C-195.67 185.67 -195.34 185.34 -195 185 C-194.91314397 183.43827255 -194.89297781 181.87270656 -194.90234375 180.30859375 C-194.90556641 179.36435547 -194.90878906 178.42011719 -194.91210938 177.44726562 C-194.92048828 176.45404297 -194.92886719 175.46082031 -194.9375 174.4375 C-194.94201172 173.44041016 -194.94652344 172.44332031 -194.95117188 171.41601562 C-194.96299993 168.94395151 -194.97948151 166.47200482 -195 164 C-191.79013784 167.03780925 -189.32158224 169.7517269 -187.3125 173.6875 C-184.18198615 179.67206674 -180.90853372 185.56491441 -177.6027832 191.45385742 C-170 205.07757623 -170 205.07757623 -170 208 C-169.34 208.33 -168.68 208.66 -168 209 C-168 210.32 -168 211.64 -168 213 C-167.34 213.33 -166.68 213.66 -166 214 C-166.33 214.66 -166.66 215.32 -167 216 C-166.34 216.33 -165.68 216.66 -165 217 C-164.3671875 219.109375 -164.3671875 219.109375 -163.875 221.75 C-163.70742188 222.61109375 -163.53984375 223.4721875 -163.3671875 224.359375 C-163.0076009 226.94533821 -162.93435959 229.39313809 -163 232 C-162.34 232.33 -161.68 232.66 -161 233 C-161.33 235.31 -161.66 237.62 -162 240 C-161.34 240.33 -160.68 240.66 -160 241 C-160.0314209 241.8751123 -160.0628418 242.75022461 -160.09521484 243.65185547 C-160.92171541 267.92915374 -160.92171541 267.92915374 -154 291 C-153.67 291 -153.34 291 -153 291 C-153 288.03 -153 285.06 -153 282 C-152.34 282 -151.68 282 -151 282 C-150.92652344 280.15535156 -150.92652344 280.15535156 -150.8515625 278.2734375 C-150.77648971 276.64060434 -150.70094385 275.00779288 -150.625 273.375 C-150.5940625 272.56675781 -150.563125 271.75851562 -150.53125 270.92578125 C-150.30297944 266.24623472 -149.64489476 262.42670209 -148 258 C-147.42532718 255.63276978 -146.88435578 253.25713863 -146.375 250.875 C-146.11460937 249.67617188 -145.85421875 248.47734375 -145.5859375 247.2421875 C-144.88143867 243.89307867 -144.88143867 243.89307867 -145 240 C-144.34 240 -143.68 240 -143 240 C-143 237.36 -143 234.72 -143 232 C-142.34 232 -141.68 232 -141 232 C-141 229.69 -141 227.38 -141 225 C-140.34 225 -139.68 225 -139 225 C-138.67 221.7 -138.34 218.4 -138 215 C-137.34 215 -136.68 215 -136 215 C-135.86722656 214.33613281 -135.73445313 213.67226563 -135.59765625 212.98828125 C-134.73177083 208.65885417 -133.86588542 204.32942708 -133 200 C-132.34 200 -131.68 200 -131 200 C-130.81824219 199.12988281 -130.81824219 199.12988281 -130.6328125 198.2421875 C-130.46523438 197.46101562 -130.29765625 196.67984375 -130.125 195.875 C-129.96257812 195.10929688 -129.80015625 194.34359375 -129.6328125 193.5546875 C-129 191 -129 191 -127.94140625 188.4296875 C-126.55396456 183.37502443 -126.75095833 178.4648466 -126.8125 173.25 C-126.81314453 172.19683594 -126.81378906 171.14367187 -126.81445312 170.05859375 C-126.61735965 164.86281697 -126.61735965 164.86281697 -128 160 C-128.2165625 158.081875 -128.2165625 158.081875 -128.4375 156.125 C-128.94154113 151.77764522 -129.8642452 149.1357548 -133 146 C-133 145.01 -133 144.02 -133 143 C-133.66 142.67 -134.32 142.34 -135 142 C-135.95095932 139.90788949 -136.81340501 137.77501479 -137.625 135.625 C-138.07101562 134.46226562 -138.51703125 133.29953125 -138.9765625 132.1015625 C-140 129 -140 129 -140 126 C-140.66 125.67 -141.32 125.34 -142 125 C-142.28926947 122.97511372 -142.57272154 120.94755984 -142.75390625 118.91015625 C-142.90406878 116.91747967 -142.90406878 116.91747967 -144 115 C-144.02786287 113.54425564 -143.98882066 112.08690301 -143.9140625 110.6328125 C-143.87079834 109.75197998 -143.82753418 108.87114746 -143.78295898 107.96362305 C-143.73083252 107.02687744 -143.67870605 106.09013184 -143.625 105.125 C-143.57609619 104.17858643 -143.52719238 103.23217285 -143.47680664 102.25708008 C-143.11520955 95.49203248 -142.65619778 88.74347929 -142 82 C-141.34 82 -140.68 82 -140 82 C-139.97421875 80.86820312 -139.9484375 79.73640625 -139.921875 78.5703125 C-139.86560374 77.08850257 -139.80825618 75.60673323 -139.75 74.125 C-139.73582031 73.37863281 -139.72164063 72.63226563 -139.70703125 71.86328125 C-139.609375 69.6953125 -139.609375 69.6953125 -139 66 C-136.953125 64.4921875 -136.953125 64.4921875 -135 64 C-134.87625 64.969375 -134.7525 65.93875 -134.625 66.9375 C-134.41875 67.948125 -134.2125 68.95875 -134 70 C-133.34 70.33 -132.68 70.66 -132 71 C-131.11364705 73.55269648 -130.46440296 76.13619737 -129.78125 78.75 C-129.2328113 81.17453207 -129.2328113 81.17453207 -127 82 C-126.1091598 84.81505503 -125.46234376 87.65881108 -124.78125 90.53125 C-124.5234375 91.3459375 -124.265625 92.160625 -124 93 C-123.34 93.33 -122.68 93.66 -122 94 C-116.65211716 110.14177481 -116.43161837 132.99090281 -122 149 C-123.03089699 154.44778853 -123.03089699 154.44778853 -122.5234375 159.8828125 C-121.82533851 162.70646662 -121.90593619 165.34612941 -121.9375 168.25 C-121.94652344 169.32765625 -121.95554687 170.4053125 -121.96484375 171.515625 C-121.97644531 172.33546875 -121.98804688 173.1553125 -122 174 C-121.67 172.35 -121.34 170.7 -121 169 C-120.34 169 -119.68 169 -119 169 C-118.87625 168.29875 -118.7525 167.5975 -118.625 166.875 C-117.96161655 163.82343613 -117.02788045 160.94659062 -116 158 C-115.34 158 -114.68 158 -114 158 C-113.67 156.845 -113.34 155.69 -113 154.5 C-111.38340618 149.62678965 -109.21436692 145.09052343 -106.9375 140.5 C-106.58494141 139.78134766 -106.23238281 139.06269531 -105.86914062 138.32226562 C-103.2474958 133.1237479 -103.2474958 133.1237479 -101 132 C-100.29894157 130.34750513 -99.64199649 128.67632417 -99 127 C-98.35069765 125.57529113 -97.68294546 124.15889119 -97 122.75 C-96.67 122.06421875 -96.34 121.3784375 -96 120.671875 C-95 119 -95 119 -93 118 C-92.31973639 116.33883666 -91.65545297 114.6711085 -91 113 C-89.9564468 111.29840039 -88.86404778 109.62615521 -87.734375 107.98046875 C-87.09113281 107.04009766 -86.44789063 106.09972656 -85.78515625 105.13085938 C-85.11355469 104.15955078 -84.44195312 103.18824219 -83.75 102.1875 C-82.76580078 100.74793945 -82.76580078 100.74793945 -81.76171875 99.27929688 C-78.34112077 94.29800857 -74.85960047 89.40153365 -71.12548828 84.6496582 C-69.669206 82.5151464 -69.16045431 80.56726903 -69 78 C-68.34 78 -67.68 78 -67 78 C-67 76.35 -67 74.7 -67 73 C-66.34 73 -65.68 73 -65 73 C-64.91363281 72.195625 -64.82726562 71.39125 -64.73828125 70.5625 C-63.80402511 66.0543434 -62.08628435 62.17663636 -60.1875 58 C-59.84396484 57.21882813 -59.50042969 56.43765625 -59.14648438 55.6328125 C-57.10859055 51.09056509 -54.81234664 47.09955953 -52 43 C-51.67 42.01 -51.34 41.02 -51 40 C-49.38161281 38.28641357 -47.70328319 36.6292274 -46 35 C-45.52820313 34.484375 -45.05640625 33.96875 -44.5703125 33.4375 C-37.09455148 25.40384637 -27.37662514 19.62061444 -17.92578125 14.19140625 C-15.86598892 13.0188631 -15.86598892 13.0188631 -14 11 C-13.13375 10.443125 -12.2675 9.88625 -11.375 9.3125 C-7.2402834 6.62084043 -3.65270295 3.30041181 0 0 Z " fill="#FDFCFC" transform="translate(499,303)"/>
<path d="M0 0 C0.495 0.99 0.495 0.99 1 2 C0.18652344 3.86572266 0.18652344 3.86572266 -1.140625 6.1640625 C-1.62869629 7.02604248 -2.11676758 7.88802246 -2.61962891 8.77612305 C-3.15765137 9.71625244 -3.69567383 10.65638184 -4.25 11.625 C-29.44747405 56.85799134 -45.72139621 108.41703609 -51 160 C-51.10151367 160.94665527 -51.20302734 161.89331055 -51.30761719 162.86865234 C-54.53330519 193.99094493 -53.45385911 224.96568934 -50 256 C-49.89848633 256.98387695 -49.79697266 257.96775391 -49.69238281 258.98144531 C-41.92288369 332.99614747 -6.70400461 405.9040467 41.3828125 461.91015625 C43.65354305 464.56477556 45.79417287 467.3037195 47.9375 470.0625 C52.61119441 475.81539294 57.82699243 481.00974281 63.0625 486.25 C63.91384521 487.10215088 64.76519043 487.95430176 65.64233398 488.83227539 C70.60692492 493.75354108 75.69819018 498.44698588 81 503 C82.12184535 503.99769554 83.24169774 504.99763734 84.359375 506 C122.85162842 540.20276091 168.58212999 566.70714763 217 584 C218.21558594 584.44601562 219.43117188 584.89203125 220.68359375 585.3515625 C260.00141427 599.18643692 301.95462723 605.21879221 343.5 605.25 C344.43864899 605.25100708 345.37729797 605.25201416 346.34439087 605.25305176 C363.4083737 605.24076238 380.07511983 604.25963042 397 602 C398.00804687 601.87141602 399.01609375 601.74283203 400.0546875 601.61035156 C437.54231378 596.67314073 477.03046456 585.49121043 510.75 568.25 C511.38921387 567.92418945 512.02842773 567.59837891 512.68701172 567.26269531 C514.79569504 566.18336447 516.89808021 565.09243902 519 564 C520.21768066 563.37158203 520.21768066 563.37158203 521.45996094 562.73046875 C524.01786508 561.40912855 526.57216298 560.08110105 529.125 558.75 C529.91874023 558.33782227 530.71248047 557.92564453 531.53027344 557.50097656 C535.86840635 555.21998813 539.94458352 552.76452083 544 550 C545.28157957 549.29387478 546.57279039 548.60481488 547.875 547.9375 C577.72971253 531.53491087 604.82429015 507.15425055 628.875 483.25 C629.64179077 482.49021851 629.64179077 482.49021851 630.42407227 481.71508789 C667.91038409 444.07073421 696.02808903 396.27660061 715 347 C715.72651431 345.1653455 716.45307405 343.33070899 717.1796875 341.49609375 C755.13767043 243.59681019 746.50665547 131.22680019 704.82421875 36.2421875 C702.09695193 30.13625703 699.19031786 24.15643911 696.01171875 18.2734375 C695.51091797 17.14808594 695.51091797 17.14808594 695 16 C695.33 15.34 695.66 14.68 696 14 C703.69887124 26.30652903 710.44861591 39.05143538 717 52 C717.40750488 52.79889648 717.81500977 53.59779297 718.23486328 54.42089844 C725.68536709 69.1311121 731.41731612 84.50697031 737 100 C737.32661621 100.89750977 737.65323242 101.79501953 737.98974609 102.71972656 C769.45018317 190.41148068 750.21361741 300.74215138 711.6796875 382.81201172 C702.64806113 401.80285475 691.95073242 419.71091852 680 437 C679.60635254 437.57379395 679.21270508 438.14758789 678.80712891 438.73876953 C672.48490153 447.92086745 665.60829359 456.58119783 658.50585938 465.16943359 C657.14150036 466.82798806 655.79314224 468.49754366 654.453125 470.17578125 C650.49938708 475.10432007 646.43671991 479.70187078 641.90234375 484.1015625 C639.98224311 486.01772043 638.20610163 488.00635289 636.4375 490.0625 C631.44796722 495.84223028 626.0628983 501.02508937 620.27734375 506 C618.10243029 507.91004407 615.98538414 509.87334243 613.87304688 511.85205078 C607.5026358 517.7967988 600.83688591 523.23202257 593.91992188 528.52587891 C591.89130438 530.08345679 589.87496745 531.65607957 587.859375 533.23046875 C521.98530029 584.47423089 439.43931437 614.05729187 356 616 C355.11022461 616.02191406 354.22044922 616.04382813 353.30371094 616.06640625 C279.08694147 617.613126 204.42821433 598.94350186 141 560 C140.31663574 559.58306885 139.63327148 559.1661377 138.92919922 558.73657227 C120.00679666 547.14654143 101.97253906 534.30782643 85 520 C84.47229004 519.55720703 83.94458008 519.11441406 83.40087891 518.65820312 C76.51555752 512.87048414 69.75482657 506.95410886 63.125 500.875 C62.51164795 500.31844727 61.8982959 499.76189453 61.26635742 499.18847656 C59.80441684 497.83407185 58.39640805 496.42187445 57 495 C57 494.34 57 493.68 57 493 C56.42378906 492.76023437 55.84757812 492.52046875 55.25390625 492.2734375 C52.54250044 490.74151671 50.97558118 488.97926948 48.9375 486.625 C45.96438436 483.23203552 42.97169935 479.87107807 39.89892578 476.56884766 C-24.727525 406.97980728 -59.71552056 312.77399888 -64 192 C-61.19334702 121.6680049 -40.12159765 58.05831189 0 0 Z " fill="#FFFFFF" transform="translate(284,394)"/>
<path d="M0 0 C5.68554698 4.74646202 10.13673811 10.35548014 11.1875 17.8125 C12.02857028 27.43655006 10.9601268 35.78002352 5.05859375 43.65234375 C-1.24706285 50.8929412 -1.24706285 50.8929412 -5.8125 52.8125 C-3.853003 48.18096164 -0.45712079 44.63985643 2.875 40.9375 C7.05537739 34.16926994 6.96502711 25.49178006 6.1875 17.8125 C4.5607318 12.32545482 1.4808263 8.56916051 -2.8125 4.8125 C-3.43125 4.255625 -4.05 3.69875 -4.6875 3.125 C-11.98518701 -1.38239492 -21.50770422 -1.39609604 -29.67578125 0.46484375 C-55.48017434 9.16589091 -69.40941785 30.95352432 -80.97412109 54.21508789 C-87.93742557 68.81180098 -93.57195124 84.0066983 -99.41448975 99.07556152 C-160.71545543 257.09686506 -160.71545543 257.09686506 -208.8125 309.8125 C-211.04560552 308.73674145 -213.27374501 307.65227517 -215.5 306.5625 C-216.12583984 306.26214844 -216.75167969 305.96179688 -217.39648438 305.65234375 C-221.26688826 303.74753765 -224.5244061 301.65421786 -227.8125 298.8125 C-227.37719971 298.04063354 -227.37719971 298.04063354 -226.93310547 297.25317383 C-210.35785074 267.71538546 -196.91810256 236.99919754 -183.8125 205.8125 C-183.46429199 204.98463989 -183.11608398 204.15677979 -182.75732422 203.30383301 C-173.60911022 181.54811471 -164.54972056 159.74950676 -155.82421875 137.8203125 C-123.36890806 56.61757638 -123.36890806 56.61757638 -95.8125 26.8125 C-94.50925781 25.38744141 -94.50925781 25.38744141 -93.1796875 23.93359375 C-71.50829912 1.21970418 -29.51694732 -20.90986383 0 0 Z " fill="#FFFFFF" transform="translate(919.8125,523.1875)"/>
<path d="M0 0 C1.31629395 0.00902344 2.63258789 0.01804687 3.98876953 0.02734375 C38.49845499 0.63522078 69.92711579 15.79141143 99.4375 32.4375 C100.345 32.94893555 101.2525 33.46037109 102.1875 33.98730469 C111.15359709 39.05327837 120.06932887 44.20213698 128.9375 49.4375 C131.76932759 51.10673862 134.60261281 52.77346263 137.4375 54.4375 C138.59523926 55.1171582 138.59523926 55.1171582 139.77636719 55.81054688 C184.90195764 82.20168642 236.44738821 110.1297132 290.3059082 96.91552734 C306.97445603 92.46120373 322.53572011 83.90574879 335.4375 72.4375 C336.0975 72.7675 336.7575 73.0975 337.4375 73.4375 C317.99136658 96.6679484 290.54487202 110.88547046 260.4375 114.4375 C254.89323639 114.78217884 249.366499 114.87869287 243.8125 114.875 C243.04704865 114.8750705 242.28159729 114.87514099 241.49295044 114.87521362 C196.3723451 114.71656294 156.06084507 94.64659053 118.4375 71.4375 C116.7161787 70.38275885 114.99482207 69.32807537 113.2734375 68.2734375 C104.86247723 63.10568966 96.51976788 57.88587866 88.34765625 52.34765625 C82.50179501 48.51057418 76.45469002 44.99726119 70.4375 41.4375 C67.76594422 39.85177594 65.12767808 38.23894923 62.51171875 36.5625 C36.46080235 20.21682697 5.78897924 7.13746436 -25.453125 13.19140625 C-40.68996103 16.87724007 -52.08742924 23.88720669 -60.9375 37.0625 C-67.81449879 49.40983874 -68.77643643 63.13766265 -65.6640625 76.70703125 C-60.73839263 93.38793452 -50.88377135 103.49543789 -36.5625 112.4375 C-35.77359375 112.9325 -34.9846875 113.4275 -34.171875 113.9375 C-12.30735787 126.16939769 18.85558749 126.70065311 42.4375 120.4375 C43.0965332 120.27652832 43.75556641 120.11555664 44.43457031 119.94970703 C66.39508698 114.56560485 84.44773633 103.76298221 101.26513672 88.92822266 C103.66772418 86.82355911 105.36897497 85.46034168 108.4375 84.4375 C108.746875 83.798125 109.05625 83.15875 109.375 82.5 C110.4375 80.4375 110.4375 80.4375 114.4375 78.4375 C117.7375 80.7475 121.0375 83.0575 124.4375 85.4375 C121.08742765 90.26865697 117.03748971 93.03966522 112.1875 96.1875 C111.38683105 96.71190674 110.58616211 97.23631348 109.76123047 97.77661133 C77.20839618 118.87519433 43.37998057 130.60536991 4.375 130.625 C3.09044922 130.63724609 1.80589844 130.64949219 0.48242188 130.66210938 C-7.09373455 130.67369962 -14.17093106 130.13070171 -21.5625 128.4375 C-21.6860083 127.79780273 -21.8095166 127.15810547 -21.93676758 126.49902344 C-22.14325928 125.8187207 -22.34975098 125.13841797 -22.5625 124.4375 C-24.63200018 123.35193245 -24.63200018 123.35193245 -27.25 122.6875 C-44.76545308 116.81120162 -59.40151245 105.10847624 -68.0234375 88.6484375 C-74.96351101 74.08631793 -76.19826077 58.9703088 -71.5625 43.4375 C-64.81464339 25.86453202 -51.87985881 14.11893411 -35.1015625 6.2890625 C-23.73013947 1.3945665 -12.30062155 -0.10196086 0 0 Z " fill="#FFFFFF" transform="translate(554.5625,777.5625)"/>
</svg>
